<svg xmlns="http://www.w3.org/2000/svg" viewBox="0 0 600 168"
  role="img" aria-label="epixodic logo">
  <defs>
    <style>
      .logo-r0 { fill: var(--ep-logo-radius-0, #38f0df); }
      .logo-r1 { fill: var(--ep-logo-radius-1, #35b5de); }
      .logo-r2 { fill: var(--ep-logo-radius-2, #0a78b7); }
      .logo-r3 { fill: var(--ep-logo-radius-3, #1b1464); }
    </style>
  </defs>

  <!-- Dark navy: main letter bodies -->
  <g class="logo-r3" transform="translate(0,168) scale(0.1,-0.1)" stroke="none">
    <path d="M2030 1543 c-21 -11 -42 -33 -54 -56 -16 -33 -17 -45 -7 -76 6 -20
22 -48 37 -62 20 -19 36 -24 79 -24 63 0 89 19 107 77 31 104 -67 190 -162
141z"/>
    <path d="M4823 1538 c6 -31 59 -212 63 -216 7 -9 47 23 64 51 52 84 -4 187
-101 187 -27 0 -31 -3 -26 -22z"/>
    <path d="M4759 1514 c-19 -20 -24 -37 -24 -75 0 -41 5 -53 30 -79 17 -16 45
-33 64 -36 29 -6 33 -5 28 12 -27 98 -61 204 -67 204 -4 0 -17 -12 -31 -26z"/>
    <path d="M567 1210 c-97 -25 -189 -94 -240 -181 -52 -88 -70 -218 -46 -331 15
-72 64 -161 112 -204 22 -20 67 -49 101 -65 111 -52 267 -49 378 7 26 13 49
28 53 34 3 5 3 52 -1 103 -6 92 -7 94 -36 105 -27 10 -30 8 -48 -20 -10 -18
-38 -44 -61 -60 -36 -24 -52 -28 -109 -28 -57 0 -73 4 -110 29 -47 31 -90 93
-90 129 0 22 0 22 223 22 224 0 224 0 230 183 7 180 6 182 -16 200 -12 10 -50
32 -85 49 -49 23 -79 31 -140 34 -42 2 -94 -1 -115 -6z m180 -177 c39 -18 79
-73 89 -121 7 -32 7 -32 -175 -32 -197 0 -192 -1 -170 57 13 34 44 70 84 94
38 24 124 25 172 2z"/>
    <path d="M1495 1211 c-52 -14 -111 -49 -143 -85 -17 -20 -34 -36 -37 -36 -3 0
-5 25 -5 55 0 55 0 55 -95 55 -95 0 -95 0 -95 -550 0 -550 0 -550 95 -550 95
0 95 0 95 200 0 110 3 200 8 200 4 0 20 -14 36 -30 16 -17 47 -41 70 -53 33
-17 58 -22 126 -22 73 0 93 4 141 27 95 47 92 40 79 235 -9 135 -8 198 3 318
13 143 13 151 -5 171 -33 37 -103 65 -175 69 -37 2 -81 1 -98 -4z m88 -195
c41 -17 91 -74 108 -123 7 -21 13 -65 13 -98 0 -47 -7 -72 -28 -111 -17 -31
-43 -61 -69 -77 -31 -21 -53 -27 -94 -27 -65 0 -122 26 -156 72 -43 57 -59
153 -37 227 14 51 59 110 99 131 43 23 119 25 164 6z"/>
    <path d="M5313 1205 c-74 -21 -122 -47 -167 -92 -87 -87 -121 -175 -120 -313
2 -140 36 -223 127 -310 112 -108 331 -132 478 -53 46 25 46 25 52 136 5 97 4
114 -10 125 -24 18 -51 15 -58 -7 -3 -11 -25 -37 -49 -59 -49 -45 -89 -57
-167 -50 -63 6 -115 46 -148 113 -18 36 -25 64 -24 109 0 134 81 226 198 226
23 0 58 -7 77 -15 34 -13 91 -69 100 -96 4 -11 12 -11 47 0 41 12 43 14 37 43
-3 17 -6 63 -6 104 0 73 0 73 -73 109 -61 30 -85 36 -157 40 -58 4 -102 0
-137 -10z"/>
    <path d="M1990 805 c0 -395 0 -395 95 -395 95 0 95 0 95 395 0 395 0 395 -95
395 -95 0 -95 0 -95 -395z"/>
    <path d="M4750 805 c0 -395 0 -395 69 -395 69 0 69 0 82 103 18 134 18 411 0
565 -14 122 -14 122 -82 122 -69 0 -69 0 -69 -395z"/>
    <path d="M4914 1143 c34 -273 34 -465 0 -688 -6 -41 -5 -45 15 -45 21 0 21 0
21 395 0 395 0 395 -21 395 -21 0 -21 -3 -15 -57z"/>
    <path d="M1793 1023 c-10 -106 -7 -434 5 -483 8 -35 8 -35 41 15 64 101 86
243 56 367 -17 71 -56 158 -81 179 -9 8 -14 -10 -21 -78z"/>
    <path d="M5700 1037 c0 -87 7 -97 58 -75 31 13 31 13 13 53 -11 22 -31 54 -45
70 -25 30 -25 30 -26 -48z"/>
    <path d="M947 1044 c-4 -22 -7 -96 -7 -166 0 -128 0 -128 51 -128 52 0 52 0
46 83 -6 87 -35 186 -66 226 -18 24 -18 24 -24 -15z"/>
    <path d="M5706 634 c-3 -26 -6 -70 -6 -97 0 -51 0 -51 31 -21 17 16 42 50 55
77 25 47 25 47 -22 67 -25 11 -47 20 -48 20 -2 0 -6 -21 -10 -46z"/>
    <path d="M940 621 c0 -21 3 -59 6 -85 5 -36 9 -44 20 -35 17 14 78 109 73 113
-2 2 -25 13 -51 24 -48 21 -48 21 -48 -17z"/>
  </g>

  <!-- Blue: x center/left, d ascender -->
  <g class="logo-r2" transform="translate(0,168) scale(0.1,-0.1)" stroke="none">
    <path d="M4430 1312 c0 -223 0 -223 -31 -187 -18 20 -39 40 -48 45 -16 8 -16
3 0 -58 10 -37 18 -81 18 -99 1 -18 12 -48 25 -68 34 -49 48 -122 36 -185 -10
-52 -33 -104 -50 -115 -5 -3 -10 -25 -10 -48 0 -38 -11 -101 -26 -149 -9 -29
11 -21 52 22 22 22 42 40 47 40 4 0 7 -12 7 -27 0 -16 3 -38 6 -50 6 -22 11
-23 101 -23 86 0 95 2 89 17 -19 49 -25 201 -26 630 0 472 0 472 -95 475 -95
3 -95 3 -95 -220z"/>
    <path d="M4118 1210 c-45 -8 -126 -48 -147 -74 -8 -9 -5 -28 8 -67 23 -65 41
-186 41 -275 0 -79 -25 -240 -45 -287 -15 -36 -15 -36 35 -66 63 -39 164 -58
234 -45 50 9 50 9 66 84 9 41 20 88 24 103 6 27 6 27 -16 13 -60 -38 -144 -27
-204 27 -20 17 -46 52 -56 77 -26 58 -28 142 -5 202 22 56 81 113 134 127 48
14 59 13 106 -3 20 -8 37 -11 37 -7 0 12 -38 183 -42 186 -9 8 -129 12 -170 5z"/>
    <path d="M2302 1093 c59 -88 73 -104 78 -88 4 11 17 59 27 108 20 87 20 87
-78 87 -98 0 -98 0 -27 -107z"/>
    <path d="M2759 1159 c-13 -22 -28 -48 -34 -58 -53 -89 -101 -161 -107 -161 -4
0 -13 11 -20 25 -24 47 -133 223 -136 221 -6 -6 -42 -213 -42 -241 0 -18 14
-51 35 -83 36 -52 36 -52 -3 -110 -32 -46 -38 -64 -35 -92 9 -77 36 -225 42
-232 3 -3 40 49 81 118 41 68 77 124 80 124 3 0 41 -58 85 -130 64 -104 84
-129 103 -130 21 0 22 1 7 23 -8 12 -27 59 -41 102 -23 68 -27 102 -31 231 -4
132 -2 162 17 239 18 73 39 130 68 188 2 4 -7 7 -20 7 -18 0 -31 -11 -49 -41z"/>
    <path d="M2345 590 c-47 -76 -98 -154 -108 -167 -7 -10 12 -13 88 -13 98 0 98
0 90 33 -4 17 -15 68 -24 112 -17 80 -17 80 -46 35z"/>
  </g>

  <!-- Light blue: O outer ring, far right x, far left d curve -->
  <g class="logo-r1" transform="translate(0,168) scale(0.1,-0.1)" stroke="none">
    <path d="M3302 1210 c-83 -18 -160 -60 -215 -120 -68 -73 -97 -147 -104 -260
-9 -141 31 -255 118 -339 56 -53 131 -89 214 -100 146 -21 282 24 369 120 51
57 70 94 92 180 11 44 15 87 11 139 -15 220 -158 368 -373 384 -38 3 -88 1
-112 -4z m190 -76 c25 -8 65 -31 88 -51 86 -74 125 -173 118 -306 -5 -98 -33
-176 -83 -235 -20 -22 -61 -53 -93 -69 -48 -24 -70 -28 -137 -28 -67 0 -89 4
-137 28 -67 33 -111 80 -147 157 -21 45 -27 73 -29 155 -3 84 0 110 18 160 17
44 37 75 79 116 35 34 75 62 102 72 58 20 164 21 221 1z"/>
    <path d="M2878 1123 c-35 -76 -58 -153 -58 -190 0 -10 41 44 90 119 50 75 90
139 90 142 0 3 -20 6 -43 6 -44 0 -44 0 -79 -77z"/>
    <path d="M3876 1010 c-32 -70 -49 -178 -40 -255 8 -70 37 -172 58 -200 13 -18
15 -16 32 40 31 107 21 384 -17 455 -6 11 -14 1 -33 -40z"/>
    <path d="M2810 699 c0 -33 37 -164 63 -221 30 -68 30 -68 84 -68 54 0 54 0 20
53 -135 210 -159 247 -163 247 -2 0 -4 -5 -4 -11z"/>
  </g>

  <!-- Cyan: O center circle -->
  <g class="logo-r0" transform="translate(0,168) scale(0.1,-0.1)" stroke="none">
    <path d="M3305 1011 c-49 -23 -79 -54 -101 -106 -9 -22 -16 -42 -16 -45 -1 -3
-3 -11 -6 -18 -9 -25 6 -119 26 -158 11 -22 31 -49 44 -61 53 -50 146 -67 211
-39 45 19 91 72 112 129 32 85 6 206 -57 264 -32 31 -90 53 -135 53 -21 0 -56
-9 -78 -19z"/>
  </g>
</svg>
